<svg width="120" height="120" viewBox="0 0 120 120" fill="none" xmlns="http://www.w3.org/2000/svg">
  <defs>
    <radialGradient id="gB" cx="35%" cy="30%" r="70%">
      <stop offset="0%" stop-color="#555"/>
      <stop offset="100%" stop-color="#111"/>
    </radialGradient>
    <radialGradient id="gW" cx="35%" cy="30%" r="70%">
      <stop offset="0%" stop-color="#d8d8d8"/>
      <stop offset="100%" stop-color="#909090"/>
    </radialGradient>
    <radialGradient id="gT" cx="35%" cy="30%" r="70%">
      <stop offset="0%" stop-color="#5bbdd6"/>
      <stop offset="100%" stop-color="#2a7a99"/>
    </radialGradient>
    <radialGradient id="gO" cx="35%" cy="30%" r="70%">
      <stop offset="0%" stop-color="#f0a830"/>
      <stop offset="100%" stop-color="#c07010"/>
    </radialGradient>
    <radialGradient id="gR" cx="35%" cy="30%" r="70%">
      <stop offset="0%" stop-color="#ff4040"/>
      <stop offset="40%" stop-color="#cc1515"/>
      <stop offset="100%" stop-color="#7a0000"/>
    </radialGradient>
    <radialGradient id="gGlow" cx="50%" cy="50%" r="50%">
      <stop offset="0%" stop-color="#ff3333" stop-opacity="0.3"/>
      <stop offset="100%" stop-color="#ff3333" stop-opacity="0"/>
    </radialGradient>
    <filter id="sh" x="-20%" y="-20%" width="140%" height="140%">
      <feDropShadow dx="1" dy="2" stdDeviation="2" flood-color="#000" flood-opacity="0.5"/>
    </filter>
  </defs>

  <circle cx="60" cy="60" r="28" fill="url(#gGlow)"/>
  <path d="M28 22 C20 28, 32 48, 48 52 C40 40, 30 32, 36 24 Z" fill="url(#gB)" filter="url(#sh)"/>
  <path d="M92 22 C100 28, 88 48, 72 52 C80 40, 90 32, 84 24 Z" fill="url(#gW)" filter="url(#sh)"/>
  <path d="M22 88 C28 96, 48 84, 52 68 C40 76, 30 86, 24 80 Z" fill="url(#gT)" filter="url(#sh)"/>
  <path d="M98 88 C92 96, 72 84, 68 68 C80 76, 90 86, 96 80 Z" fill="url(#gO)" filter="url(#sh)"/>
  <circle cx="60" cy="60" r="17" fill="url(#gR)" filter="url(#sh)"/>
  <ellipse cx="54" cy="54" rx="6" ry="4" fill="white" opacity="0.22"/>
</svg>
