<svg width="280" height="72" viewBox="0 0 280 72" fill="none" xmlns="http://www.w3.org/2000/svg">
  <defs>
    <radialGradient id="gB" cx="35%" cy="30%" r="70%">
      <stop offset="0%" stop-color="#444"/>
      <stop offset="100%" stop-color="#111"/>
    </radialGradient>
    <radialGradient id="gW" cx="35%" cy="30%" r="70%">
      <stop offset="0%" stop-color="#c0c0c0"/>
      <stop offset="100%" stop-color="#888"/>
    </radialGradient>
    <radialGradient id="gT" cx="35%" cy="30%" r="70%">
      <stop offset="0%" stop-color="#4aaec8"/>
      <stop offset="100%" stop-color="#1f6a88"/>
    </radialGradient>
    <radialGradient id="gO" cx="35%" cy="30%" r="70%">
      <stop offset="0%" stop-color="#e89e20"/>
      <stop offset="100%" stop-color="#a86000"/>
    </radialGradient>
    <radialGradient id="gR" cx="35%" cy="30%" r="70%">
      <stop offset="0%" stop-color="#ff4040"/>
      <stop offset="40%" stop-color="#cc1515"/>
      <stop offset="100%" stop-color="#7a0000"/>
    </radialGradient>
    <filter id="sh" x="-30%" y="-30%" width="160%" height="160%">
      <feDropShadow dx="0.5" dy="1" stdDeviation="1.5" flood-color="#000" flood-opacity="0.2"/>
    </filter>
  </defs>

  <rect width="280" height="72" fill="#f5f5f7"/>

  <g transform="translate(0,0) scale(0.6)">
    <path d="M28 22 C20 28, 32 48, 48 52 C40 40, 30 32, 36 24 Z" fill="url(#gB)" filter="url(#sh)"/>
    <path d="M92 22 C100 28, 88 48, 72 52 C80 40, 90 32, 84 24 Z" fill="url(#gW)" filter="url(#sh)"/>
    <path d="M22 88 C28 96, 48 84, 52 68 C40 76, 30 86, 24 80 Z" fill="url(#gT)" filter="url(#sh)"/>
    <path d="M98 88 C92 96, 72 84, 68 68 C80 76, 90 86, 96 80 Z" fill="url(#gO)" filter="url(#sh)"/>
    <circle cx="60" cy="60" r="17" fill="url(#gR)" filter="url(#sh)"/>
    <ellipse cx="54" cy="54" rx="6" ry="4" fill="white" opacity="0.28"/>
  </g>

  <line x1="84" y1="16" x2="84" y2="56" stroke="#ccc" stroke-width="1"/>

  <text x="96" y="46" font-family="'Exo 2', 'Segoe UI', Arial, sans-serif" font-weight="700" font-size="32" fill="#0d0d18" letter-spacing="-0.5">Kurgem<tspan fill="#E63329">X</tspan></text>
</svg>
